# xmcd
#
# Track frame offsets:
# 150
# 12089
# 25224
# 39345
# 51311
# 66670
# 80875
# 94825
# 109694
# 124351
# 138843
# 153731
# 168451
# 183447
# 195987
# 210206
# 224529
# 238646
# 254599
# 269019
#
# Disc length: 3757 seconds
#
# Revision: 4
# Processed by: cddbd v1.5.2PL0 Copyright (c) Steve Scherf et al.
# Submitted via: Axialis_AX_CDPlayer 2.6
#
DISCID=2a0eab14
DTITLE=Billie Holiday - Billie Holiday - Il Bules Di Lady Day - CD1
DYEAR=1900
DGENRE=
TTITLE0=My Man (mon homme)
TTITLE1=Strange Fruit
TTITLE2=Jim
TTITLE3=Be Fair With Me Baby
TTITLE4=Don't Explain
TTITLE5=Georgia on My Mind
TTITLE6=The Man I Love
TTITLE7=Solitude
TTITLE8=Please Tell Me Know
TTITLE9=Gloomy Sunday
TTITLE10=Keeps on a-rainin'
TTITLE11=As Time Goes By
TTITLE12=Lover Man
TTITLE13=Am I Blue?
TTITLE14=I Love My Man (Billie's Blues)
TTITLE15=God Bless The Child
TTITLE16=Tell Me More And More
TTITLE17=I'll Be Seeing You
TTITLE18=Rocky Mountain Blues
TTITLE19=Yesterdays
EXTD=
EXTT0=
EXTT1=
EXTT2=
EXTT3=
EXTT4=
EXTT5=
EXTT6=
EXTT7=
EXTT8=
EXTT9=
EXTT10=
EXTT11=
EXTT12=
EXTT13=
EXTT14=
EXTT15=
EXTT16=
EXTT17=
EXTT18=
EXTT19=
PLAYORDER=
